<svg width="14" height="17" viewBox="0 0 14 17" fill="none" xmlns="http://www.w3.org/2000/svg">
<g opacity="0.299219">
<path fill-rule="evenodd" clip-rule="evenodd" d="M6.9156 0.375244C8.475 0.375244 9.98904 0.901804 11.1828 1.85804V1.85801C12.7422 3.10637 13.6594 4.88137 13.7703 6.85481C13.8766 8.80317 13.1484 10.7094 11.7734 12.0844L7.21544 16.5828C7.03888 16.7578 6.73264 16.7562 6.55608 16.5812L2.06248 12.0876C0.684357 10.7095 -0.0453348 8.80172 0.0624772 6.85484C0.171837 4.88148 1.0906 3.10648 2.6484 1.85804C3.8406 0.901804 5.35624 0.375244 6.9156 0.375244ZM4 7.06248C4 8.75152 5.3734 10.125 7.06248 10.125C8.75152 10.125 10.1265 8.75156 10.125 7.06248C10.125 5.37344 8.75156 4 7.06248 4C5.37344 4 4 5.3734 4 7.06248Z" fill="white"/>
<path d="M6.9156 5.74194C6.09216 5.74194 5.4234 6.4107 5.4234 7.23414C5.4234 8.05758 6.09216 8.72634 6.9156 8.72634C7.73904 8.72634 8.4078 8.05758 8.4078 7.23414C8.4078 6.4107 7.73904 5.74194 6.9156 5.74194Z" fill="white"/>
</g>
</svg>
